<svg width="22" height="22" viewBox="0 0 22 22" fill="none" xmlns="http://www.w3.org/2000/svg">
<path d="M8.58105 2.68652C8.60234 2.69319 8.62179 2.7027 8.63867 2.71484L8.68164 2.75684C8.69313 2.77269 8.70156 2.79 8.70703 2.80762L8.71387 2.86133C8.7134 2.87933 8.71052 2.89764 8.7041 2.91504L8.67578 2.96387C7.63973 4.24509 6.9928 5.78683 6.80762 7.41113L6.77734 7.7373C6.65411 9.37209 7.00282 11.005 7.7793 12.4492L7.94043 12.7354C8.77372 14.1534 9.99449 15.3091 11.46 16.0723L11.7568 16.2188C13.2539 16.9289 14.9214 17.2088 16.5684 17.0303L16.8975 16.9893L16.9004 16.9883C16.9227 16.985 16.9452 16.9855 16.9668 16.9893L17.0283 17.0098C17.0662 17.0299 17.0935 17.0608 17.1094 17.0947C17.1173 17.1118 17.123 17.1294 17.125 17.1475L17.1221 17.2012C17.1181 17.2188 17.1104 17.2357 17.1006 17.252L17.0625 17.2969C16.21 18.0138 15.2227 18.5582 14.1572 18.8994L13.6963 19.0332H13.6953C13.0497 19.2017 12.3869 19.2971 11.7197 19.3184L11.4336 19.3232H11.4316C9.33409 19.3278 7.31026 18.598 5.71875 17.2754L5.40625 17.0029H5.40527C4.62071 16.2872 3.98167 15.4343 3.51953 14.4902L3.33301 14.0801C2.92213 13.111 2.70065 12.0765 2.67871 11.0303L2.68164 10.5811V10.5752C2.70909 9.50594 2.93727 8.45175 3.35449 7.46582L3.54492 7.04785C4.08302 5.94448 4.85344 4.96468 5.80566 4.17285L5.80469 4.17188C6.58758 3.52547 7.48367 3.02258 8.44922 2.6875L8.4502 2.68848C8.4713 2.68124 8.49343 2.67704 8.51562 2.67676L8.58105 2.68652ZM14.3193 5.09863H14.3271L14.3818 5.10645C14.3996 5.1115 14.4163 5.11939 14.4316 5.12891C14.4469 5.13838 14.4604 5.14969 14.4717 5.16211L14.499 5.20215L14.5 5.2041L15.4629 7.16602L15.6191 7.48438L15.9688 7.53711L18.1592 7.86914C18.1975 7.87506 18.2324 7.89099 18.2598 7.91406C18.2871 7.93715 18.3057 7.96658 18.3154 7.99707C18.3203 8.01239 18.3229 8.02817 18.3232 8.04395L18.3174 8.08984C18.3133 8.10521 18.3073 8.12053 18.2988 8.13477L18.2666 8.1748H18.2656L16.666 9.67871L16.4033 9.92676L16.4619 10.2822L16.8164 12.4307V12.4316C16.8203 12.4557 16.8192 12.4802 16.8125 12.5039C16.8057 12.5279 16.794 12.5519 16.7764 12.5723C16.7676 12.5824 16.7572 12.5913 16.7461 12.5996L16.709 12.6221C16.6828 12.634 16.6537 12.6393 16.624 12.6396C16.607 12.6394 16.5903 12.6378 16.5742 12.6338L16.5264 12.6162L16.5244 12.6152L14.5742 11.585L14.2646 11.4209L13.9521 11.5791L11.9814 12.5742C11.9648 12.5826 11.9472 12.5891 11.9287 12.5928L11.8711 12.5957C11.8517 12.5942 11.8329 12.5904 11.8154 12.584L11.7666 12.5576C11.7519 12.5469 11.739 12.5349 11.7285 12.5215L11.7041 12.4785C11.6921 12.4489 11.6889 12.4174 11.6943 12.3867L12.0889 10.2451L12.1543 9.88965L11.8965 9.6377L10.3232 8.10254C10.2981 8.07805 10.2818 8.04827 10.2744 8.01758C10.2708 8.00246 10.2688 7.98707 10.2695 7.97168L10.2783 7.9248C10.2835 7.90981 10.2913 7.89545 10.3008 7.88184L10.3359 7.84375C10.3499 7.8324 10.3657 7.82277 10.3828 7.81543L10.4375 7.80078H10.4385L12.6338 7.50684L12.9834 7.45996L13.1455 7.14551L14.1436 5.20215L14.1445 5.20312L14.1455 5.2002C14.1599 5.17194 14.1833 5.14647 14.2139 5.12793C14.2291 5.1187 14.2461 5.11134 14.2637 5.10645L14.3193 5.09863Z" fill="url(#paint0_linear_609_58401)" stroke="url(#paint1_linear_609_58401)" stroke-width="1.35354"/>
<defs>
<linearGradient id="paint0_linear_609_58401" x1="10.5" y1="2" x2="10.5" y2="20" gradientUnits="userSpaceOnUse">
<stop stop-color="#002E2A"/>
<stop offset="1" stop-color="#007166"/>
</linearGradient>
<linearGradient id="paint1_linear_609_58401" x1="10.5" y1="2" x2="10.5" y2="20" gradientUnits="userSpaceOnUse">
<stop stop-color="#002E2A"/>
<stop offset="1" stop-color="#007166"/>
</linearGradient>
</defs>
</svg>
