<svg width="28" height="27" viewBox="0 0 28 27" fill="none" xmlns="http://www.w3.org/2000/svg">
<path d="M13.4617 0.224201C12.9707 0.420606 11.3994 2.06549 11.3994 2.38465C11.3994 2.63016 17.8317 4.91336 18.0035 4.74151C18.3227 4.42235 18.1017 2.2128 17.6844 1.57448C16.8251 0.248752 14.9101 -0.365013 13.4617 0.224201Z" fill="url(#paint0_linear_609_58523)"/>
<path d="M10.6383 4.12779C10.3682 4.5697 9.95089 4.86431 9.45988 4.96251C7.56948 5.35532 4.42701 8.39959 3.10128 11.1493C1.45639 14.4881 1.16178 18.7354 2.31566 22.418L2.85577 24.1365L1.65279 25.1676C0.572568 26.1251 0.498917 26.2479 0.867175 26.6161C1.23543 26.9844 1.45639 27.0089 3.936 26.6407C6.3174 26.2724 6.61201 26.2724 6.78386 26.6161C6.98027 26.9353 7.91319 26.9844 13.2161 26.9844C19.9921 26.9844 20.7777 26.8616 21.3424 25.7323C22.4471 23.6455 20.9987 20.724 18.3472 19.7174C17.4879 19.3737 17.3161 19.2264 17.4143 18.7845C17.4879 18.5144 17.5616 17.6061 17.6107 16.7959L17.6598 15.3229L15.573 15.1264C14.4191 15.0037 13.4616 14.8809 13.4125 14.8318C13.3634 14.7827 13.2407 13.7762 13.1179 12.5732C12.9952 11.3948 12.8233 9.92172 12.7251 9.30796L12.5533 8.20318L13.0688 8.66964C13.5844 9.11155 13.6089 9.11156 14.37 8.47324C14.8365 8.05588 15.3029 7.88403 15.573 7.95768C15.9167 8.08043 16.064 7.93313 16.1867 7.31936C16.2849 6.87745 16.6041 6.31279 16.8987 6.09183C17.1688 5.84633 17.3652 5.62537 17.2915 5.55172C17.1442 5.42897 11.4239 3.41582 11.203 3.41582C11.1048 3.41582 10.8593 3.73498 10.6383 4.12779Z" fill="url(#paint1_linear_609_58523)"/>
<path d="M21.1706 14.4636C20.6551 14.5618 19.9922 14.8318 19.6976 15.1019C19.3784 15.3474 19.1084 15.5683 19.0838 15.5683C19.0838 15.5683 18.9856 16.0839 18.8874 16.7222L18.7156 17.9006H19.894C21.7107 17.9006 22.9628 17.4587 23.9694 16.4276C25.4424 14.9791 25.2215 14.6109 23.4047 15.4456C22.1772 15.9857 21.1215 16.0839 21.2688 15.6174C21.3425 15.4701 21.6125 15.2983 21.9072 15.2492C22.4227 15.1755 22.6437 14.6109 22.2754 14.3899C22.1527 14.3408 21.6616 14.3654 21.1706 14.4636Z" fill="url(#paint2_linear_609_58523)"/>
<path d="M19.3537 18.9563C20.483 19.6683 21.8333 21.0431 22.2261 21.9515C22.7662 23.1545 22.8154 25.1431 22.3243 26.1006C22.1279 26.4688 21.9561 26.8371 21.9561 26.8862C21.9561 26.9353 23.2818 26.9844 24.9021 26.9844C27.1363 26.9844 27.8973 26.9107 27.9955 26.6652C28.1183 26.3215 25.565 19.521 25.0986 18.9563C24.9267 18.7354 24.0183 18.6372 21.8579 18.6617C19.4519 18.6617 18.9855 18.7108 19.3537 18.9563Z" fill="url(#paint3_linear_609_58523)"/>
<defs>
<linearGradient id="paint0_linear_609_58523" x1="14.7774" y1="4.75073" x2="14.7774" y2="-5.81741e-05" gradientUnits="userSpaceOnUse">
<stop stop-color="#002E2A"/>
<stop offset="1" stop-color="#007166"/>
</linearGradient>
<linearGradient id="paint1_linear_609_58523" x1="11.1914" y1="26.9844" x2="11.1914" y2="3.41582" gradientUnits="userSpaceOnUse">
<stop stop-color="#002E2A"/>
<stop offset="1" stop-color="#007166"/>
</linearGradient>
<linearGradient id="paint2_linear_609_58523" x1="21.8269" y1="17.9006" x2="21.8269" y2="14.3654" gradientUnits="userSpaceOnUse">
<stop stop-color="#002E2A"/>
<stop offset="1" stop-color="#007166"/>
</linearGradient>
<linearGradient id="paint3_linear_609_58523" x1="23.6208" y1="26.9844" x2="23.6208" y2="18.658" gradientUnits="userSpaceOnUse">
<stop stop-color="#002E2A"/>
<stop offset="1" stop-color="#007166"/>
</linearGradient>
</defs>
</svg>
