<svg width="17" height="24" viewBox="0 0 17 24" fill="none" xmlns="http://www.w3.org/2000/svg">
<path d="M14.9914 22.1626H6.41777C6.24866 22.1626 6.11157 22.2997 6.11157 22.4688V23.6936C6.11157 23.8627 6.24866 23.9998 6.41777 23.9998H14.9914C15.1605 23.9998 15.2976 23.8627 15.2976 23.6936V22.4688C15.2976 22.2997 15.1605 22.1626 14.9914 22.1626Z" fill="url(#paint0_linear_466_100676)"/>
<path d="M6.13613 0C5.04604 0 3.98042 0.323258 3.07404 0.928882C2.16766 1.53451 1.46123 2.3953 1.04407 3.40241C0.626904 4.40953 0.51775 5.51772 0.730417 6.58687C0.943084 7.65602 1.46801 8.6381 2.23883 9.40892C3.00964 10.1797 3.99172 10.7047 5.06087 10.9173C6.13002 11.13 7.23822 11.0208 8.24534 10.6037C9.25246 10.1865 10.1133 9.48008 10.7189 8.5737C11.3245 7.66732 11.6478 6.60171 11.6478 5.51162C11.6478 4.04985 11.0671 2.64795 10.0334 1.61432C8.99981 0.580692 7.59791 0 6.13613 0ZM1.54311 5.81782C1.54311 6.02084 6.82098 6.21555 6.67742 6.35911C6.53386 6.50267 5.59484 3.98061 5.59484 5.51162L3.07412 4.59302C2.8711 4.59302 2.60528 5.04278 2.46172 4.89922C2.31816 4.75566 2.30862 6.02084 2.30862 5.81782C2.30862 5.6148 2.38927 5.42009 2.53283 5.27653C2.67639 5.13297 2.8711 5.05232 3.07412 5.05232H5.37063V2.14341C5.37063 1.94038 7.05473 1.53101 5.59484 1.60212C5.7384 1.45856 5.0145 1.83721 5.21753 1.83721C5.42055 1.83721 3.38032 2.14341 6.67742 1.60212C4.91133 1.83721 4.29892 2.24658 4.29892 2.44961L4.60512 3.98061L1.54311 5.81782Z" fill="#D6D6D6"/>
<path d="M15.9773 10.3556C15.7398 10.3274 15.4991 10.3487 15.2704 10.4182C15.0416 10.4878 14.8298 10.6041 14.6483 10.7598C14.5763 10.502 14.4329 10.2698 14.2346 10.0899C14.0363 9.91009 13.7912 9.78991 13.5276 9.74325C13.3029 9.71513 13.0748 9.73265 12.857 9.79473C12.6392 9.85682 12.4361 9.96219 12.26 10.1046C12.1622 9.85506 12.0023 9.63466 11.7954 9.46426C11.5886 9.29385 11.3417 9.17909 11.078 9.13084C10.8152 9.10324 10.5495 9.137 10.3019 9.22945C10.0543 9.3219 9.83157 9.47052 9.65114 9.66363V5.79325C9.65962 5.52809 9.58429 5.26701 9.43587 5.04712C9.28745 4.82724 9.07349 4.65974 8.8244 4.56844C8.63954 4.50491 8.44215 4.48656 8.24874 4.5149C8.05533 4.54324 7.87151 4.61747 7.71265 4.73137C7.55379 4.84527 7.4245 4.99553 7.33558 5.16961C7.24666 5.34369 7.20069 5.53655 7.20153 5.73202V15.5305C6.87669 15.5305 6.56516 15.4014 6.33546 15.1717C6.10577 14.942 5.97673 14.6305 5.97673 14.3056V13.1972C5.97673 13.1412 5.96561 13.0857 5.94399 13.0341C5.92238 12.9824 5.8907 12.9355 5.85081 12.8962C5.81092 12.8569 5.76361 12.8259 5.71163 12.805C5.65966 12.7842 5.60405 12.7738 5.54805 12.7746H5.18061C4.74208 12.7746 4.32151 12.9488 4.01142 13.2589C3.70133 13.569 3.52712 13.9896 3.52712 14.4281V17.4534C3.52591 17.7133 3.57989 17.9705 3.68545 18.2081C3.79102 18.4456 3.94578 18.658 4.13952 18.8313L5.78688 20.2766C6.12498 20.5747 6.5609 20.7382 7.01169 20.7359H13.7849C14.2719 20.7354 14.7389 20.5416 15.0832 20.197L16.4611 18.8252C16.8057 18.4809 16.9995 18.014 17 17.5269V11.6111C17.0027 11.3154 16.9019 11.028 16.7152 10.7988C16.5284 10.5695 16.2674 10.4128 15.9773 10.3556Z" fill="url(#paint1_linear_466_100676)"/>
<defs>
<linearGradient id="paint0_linear_466_100676" x1="10.7046" y1="22.1626" x2="10.7046" y2="23.9998" gradientUnits="userSpaceOnUse">
<stop stop-color="#002E2A"/>
<stop offset="1" stop-color="#007166"/>
</linearGradient>
<linearGradient id="paint1_linear_466_100676" x1="10.2636" y1="4.50195" x2="10.2636" y2="20.7359" gradientUnits="userSpaceOnUse">
<stop stop-color="#002E2A"/>
<stop offset="1" stop-color="#007166"/>
</linearGradient>
</defs>
</svg>
