<svg width="24" height="24" viewBox="0 0 24 24" fill="none" xmlns="http://www.w3.org/2000/svg">
<path d="M15.0742 6.1096C15.7611 6.1096 16.318 5.55271 16.318 4.86576V4.24384C16.318 3.55689 15.7611 3 15.0742 3C14.3872 3 13.8303 3.55689 13.8303 4.24384V4.86576C13.8303 5.55273 14.3872 6.1096 15.0742 6.1096Z" fill="url(#paint0_linear_263_37327)"/>
<path d="M17.5255 7.99737V10.472C17.5255 10.6322 17.4605 10.7773 17.3555 10.8823C17.2506 10.9873 17.1055 11.0522 16.9453 11.0522C16.7754 11.0522 16.6226 10.9793 16.5165 10.863V13.8691C16.5165 14.0278 16.4576 14.1728 16.3603 14.2831C16.0022 14.3371 15.6357 14.3651 15.2628 14.3651C14.8898 14.3651 14.5233 14.337 14.1652 14.2831C14.0679 14.1728 14.009 14.0278 14.009 13.8691V10.863C13.9559 10.9211 13.8912 10.9684 13.8185 11.0012C13.7458 11.034 13.6651 11.0522 13.5802 11.0522C13.2598 11.0522 13 10.7925 13 10.472V7.99737C13 7.67686 13.1299 7.38688 13.3399 7.17685C13.5498 6.96683 13.8401 6.83691 14.1604 6.83691H16.3651C17.0059 6.83693 17.5255 7.35648 17.5255 7.99737Z" fill="url(#paint1_linear_263_37327)"/>
<path d="M23.3464 12.2843C23.7801 11.2148 24 10.0848 24 8.92577C24 7.76673 23.7801 6.63677 23.3464 5.56725C22.8972 4.4597 22.2375 3.46617 21.3857 2.6143C20.5338 1.76243 19.5403 1.10274 18.4327 0.653617C17.3632 0.219909 16.2332 0 15.0742 0C13.9152 0 12.7852 0.219909 11.7157 0.653617C10.6081 1.10276 9.61462 1.76241 8.76274 2.6143C7.91085 3.46619 7.2512 4.4597 6.80207 5.56725C6.36835 6.63676 6.14845 7.76673 6.14844 8.92577C6.14845 10.0848 6.36835 11.2148 6.80207 12.2843C7.09485 13.0062 7.47716 13.6797 7.94378 14.2971L7.04009 15.2008L8.79914 16.9599L9.70283 16.0562C10.3203 16.5228 10.9937 16.9051 11.7157 17.1979C12.7852 17.6316 13.9152 17.8515 15.0742 17.8515C16.2332 17.8515 17.3632 17.6316 18.4327 17.1979C19.5403 16.7488 20.5338 16.0891 21.3857 15.2372C22.2376 14.3853 22.8972 13.3918 23.3464 12.2843ZM18.0354 16.2181C17.0927 16.6003 16.0964 16.7942 15.0742 16.7942C14.052 16.7942 13.0557 16.6003 12.113 16.2181C11.1373 15.8224 10.2617 15.2408 9.5104 14.4896C8.75913 13.7383 8.17757 12.8626 7.78191 11.8869C7.39963 10.9442 7.20581 9.94794 7.20581 8.92577C7.20579 7.90359 7.39963 6.90731 7.78191 5.9646C8.17757 4.9889 8.75913 4.11323 9.5104 3.36196C10.2617 2.61069 11.1373 2.02913 12.113 1.63348C13.0557 1.25119 14.052 1.05737 15.0742 1.05737C16.0964 1.05737 17.0927 1.25119 18.0353 1.63348C19.0111 2.02913 19.8867 2.61069 20.638 3.36196C21.3893 4.11323 21.9708 4.9889 22.3665 5.9646C22.7488 6.9073 22.9426 7.90358 22.9426 8.92575C22.9426 9.94794 22.7488 10.9442 22.3665 11.8869C21.9708 12.8626 21.3893 13.7383 20.638 14.4896C19.8867 15.2408 19.0111 15.8224 18.0354 16.2181Z" fill="url(#paint2_linear_263_37327)"/>
<path d="M0.515028 23.485C-0.171676 22.7983 -0.171676 21.685 0.515028 20.9983L6.00547 15.5078L8.49225 17.9946L3.0018 23.485C2.3151 24.1717 1.20173 24.1717 0.515028 23.485Z" fill="url(#paint3_linear_263_37327)"/>
<defs>
<linearGradient id="paint0_linear_263_37327" x1="15.0742" y1="3" x2="15.0742" y2="6.1096" gradientUnits="userSpaceOnUse">
<stop stop-color="#002E2A"/>
<stop offset="1" stop-color="#007166"/>
</linearGradient>
<linearGradient id="paint1_linear_263_37327" x1="15.2627" y1="6.83691" x2="15.2627" y2="14.3651" gradientUnits="userSpaceOnUse">
<stop stop-color="#002E2A"/>
<stop offset="1" stop-color="#007166"/>
</linearGradient>
<linearGradient id="paint2_linear_263_37327" x1="15.0742" y1="0" x2="15.0742" y2="17.8515" gradientUnits="userSpaceOnUse">
<stop stop-color="#002E2A"/>
<stop offset="1" stop-color="#007166"/>
</linearGradient>
<linearGradient id="paint3_linear_263_37327" x1="4.24612" y1="15.5078" x2="4.24612" y2="24.0001" gradientUnits="userSpaceOnUse">
<stop stop-color="#002E2A"/>
<stop offset="1" stop-color="#007166"/>
</linearGradient>
</defs>
</svg>
