<svg width="24" height="24" viewBox="0 0 24 24" fill="none" xmlns="http://www.w3.org/2000/svg">
<circle cx="12.0559" cy="11.52" r="11.52" fill="#F5F4F9"/>
<mask id="path-2-inside-1_436_49305" fill="white">
<path fill-rule="evenodd" clip-rule="evenodd" d="M14.2273 7C13.2482 7 12.4545 7.82081 12.4545 8.83333C12.4545 8.94385 12.464 9.05207 12.4821 9.1572L9.90177 11.0252C9.88866 11.0347 9.87625 11.0448 9.86455 11.0556C9.5636 10.8119 9.18456 10.6667 8.77273 10.6667C7.79367 10.6667 7 11.4875 7 12.5C7 13.5125 7.79367 14.3333 8.77273 14.3333C9.18456 14.3333 9.5636 14.1881 9.86455 13.9444C9.87625 13.9552 9.88866 13.9653 9.90177 13.9748L12.4821 15.8428C12.464 15.9479 12.4545 16.0562 12.4545 16.1667C12.4545 17.1792 13.2482 18 14.2273 18C15.2063 18 16 17.1792 16 16.1667C16 15.1542 15.2063 14.3333 14.2273 14.3333C13.653 14.3333 13.1425 14.6157 12.8186 15.0535L10.3753 13.2847C10.4844 13.0468 10.5455 12.7808 10.5455 12.5C10.5455 12.2192 10.4844 11.9532 10.3753 11.7153L12.8186 9.94648C13.1425 10.3843 13.653 10.6667 14.2273 10.6667C15.2063 10.6667 16 9.84586 16 8.83333C16 7.82081 15.2063 7 14.2273 7ZM13.2727 8.83333C13.2727 8.28813 13.7001 7.84615 14.2273 7.84615C14.7545 7.84615 15.1818 8.28813 15.1818 8.83333C15.1818 9.37854 14.7545 9.82051 14.2273 9.82051C13.7001 9.82051 13.2727 9.37854 13.2727 8.83333ZM8.77273 11.5128C8.24555 11.5128 7.81818 11.9548 7.81818 12.5C7.81818 13.0452 8.24555 13.4872 8.77273 13.4872C9.29991 13.4872 9.72727 13.0452 9.72727 12.5C9.72727 11.9548 9.29991 11.5128 8.77273 11.5128ZM14.2273 15.1795C13.7001 15.1795 13.2727 15.6215 13.2727 16.1667C13.2727 16.7119 13.7001 17.1538 14.2273 17.1538C14.7545 17.1538 15.1818 16.7119 15.1818 16.1667C15.1818 15.6215 14.7545 15.1795 14.2273 15.1795Z"/>
</mask>
<path fill-rule="evenodd" clip-rule="evenodd" d="M14.2273 7C13.2482 7 12.4545 7.82081 12.4545 8.83333C12.4545 8.94385 12.464 9.05207 12.4821 9.1572L9.90177 11.0252C9.88866 11.0347 9.87625 11.0448 9.86455 11.0556C9.5636 10.8119 9.18456 10.6667 8.77273 10.6667C7.79367 10.6667 7 11.4875 7 12.5C7 13.5125 7.79367 14.3333 8.77273 14.3333C9.18456 14.3333 9.5636 14.1881 9.86455 13.9444C9.87625 13.9552 9.88866 13.9653 9.90177 13.9748L12.4821 15.8428C12.464 15.9479 12.4545 16.0562 12.4545 16.1667C12.4545 17.1792 13.2482 18 14.2273 18C15.2063 18 16 17.1792 16 16.1667C16 15.1542 15.2063 14.3333 14.2273 14.3333C13.653 14.3333 13.1425 14.6157 12.8186 15.0535L10.3753 13.2847C10.4844 13.0468 10.5455 12.7808 10.5455 12.5C10.5455 12.2192 10.4844 11.9532 10.3753 11.7153L12.8186 9.94648C13.1425 10.3843 13.653 10.6667 14.2273 10.6667C15.2063 10.6667 16 9.84586 16 8.83333C16 7.82081 15.2063 7 14.2273 7ZM13.2727 8.83333C13.2727 8.28813 13.7001 7.84615 14.2273 7.84615C14.7545 7.84615 15.1818 8.28813 15.1818 8.83333C15.1818 9.37854 14.7545 9.82051 14.2273 9.82051C13.7001 9.82051 13.2727 9.37854 13.2727 8.83333ZM8.77273 11.5128C8.24555 11.5128 7.81818 11.9548 7.81818 12.5C7.81818 13.0452 8.24555 13.4872 8.77273 13.4872C9.29991 13.4872 9.72727 13.0452 9.72727 12.5C9.72727 11.9548 9.29991 11.5128 8.77273 11.5128ZM14.2273 15.1795C13.7001 15.1795 13.2727 15.6215 13.2727 16.1667C13.2727 16.7119 13.7001 17.1538 14.2273 17.1538C14.7545 17.1538 15.1818 16.7119 15.1818 16.1667C15.1818 15.6215 14.7545 15.1795 14.2273 15.1795Z" fill="white"/>
<path d="M12.4821 9.1572L13.0189 9.89868L13.4814 9.56391L13.3842 9.00135L12.4821 9.1572ZM9.90177 11.0252L10.4384 11.7668L10.4385 11.7667L9.90177 11.0252ZM9.86455 11.0556L9.28857 11.767L9.90174 12.2634L10.4832 11.7302L9.86455 11.0556ZM9.86455 13.9444L10.483 13.2696L9.90159 12.7367L9.28859 13.233L9.86455 13.9444ZM9.90177 13.9748L10.4386 13.2333L10.438 13.2329L9.90177 13.9748ZM12.4821 15.8428L13.3842 15.9987L13.4814 15.4361L13.0189 15.1013L12.4821 15.8428ZM12.8186 15.0535L12.2818 15.795L13.0156 16.3262L13.5544 15.598L12.8186 15.0535ZM10.3753 13.2847L9.54326 12.9031L9.23015 13.5858L9.83852 14.0262L10.3753 13.2847ZM10.3753 11.7153L9.83852 10.9738L9.23015 11.4142L9.54326 12.0969L10.3753 11.7153ZM12.8186 9.94648L13.5544 9.402L13.0156 8.67377L12.2818 9.205L12.8186 9.94648ZM14.2273 6.08462C12.7139 6.08462 11.5392 7.3445 11.5392 8.83333H13.3699C13.3699 8.29712 13.7825 7.91538 14.2273 7.91538V6.08462ZM11.5392 8.83333C11.5392 8.99604 11.5531 9.1564 11.5801 9.31305L13.3842 9.00135C13.3749 8.94774 13.3699 8.89166 13.3699 8.83333H11.5392ZM11.9454 8.41571L9.36499 10.2837L10.4385 11.7667L13.0189 9.89868L11.9454 8.41571ZM9.36515 10.2836C9.32322 10.3139 9.28343 10.3465 9.24589 10.3809L10.4832 11.7302C10.4691 11.7432 10.4541 11.7554 10.4384 11.7668L9.36515 10.2836ZM10.4405 10.3441C9.98481 9.97515 9.40455 9.75128 8.77273 9.75128V11.5821C8.96457 11.5821 9.14239 11.6487 9.28857 11.767L10.4405 10.3441ZM8.77273 9.75128C7.25935 9.75128 6.08462 11.0112 6.08462 12.5H7.91538C7.91538 11.9638 8.32799 11.5821 8.77273 11.5821V9.75128ZM6.08462 12.5C6.08462 13.9888 7.25935 15.2487 8.77273 15.2487V13.4179C8.32799 13.4179 7.91538 13.0362 7.91538 12.5H6.08462ZM8.77273 15.2487C9.40458 15.2487 9.98482 15.0248 10.4405 14.6559L9.28859 13.233C9.14238 13.3513 8.96455 13.4179 8.77273 13.4179V15.2487ZM9.24607 14.6193C9.28325 14.6534 9.32308 14.686 9.36557 14.7167L10.438 13.2329C10.4542 13.2446 10.4692 13.257 10.483 13.2696L9.24607 14.6193ZM9.36499 14.7163L11.9454 16.5843L13.0189 15.1013L10.4386 13.2333L9.36499 14.7163ZM11.5801 15.6869C11.5531 15.8436 11.5392 16.004 11.5392 16.1667H13.3699C13.3699 16.1083 13.3749 16.0522 13.3842 15.9987L11.5801 15.6869ZM11.5392 16.1667C11.5392 17.6555 12.7139 18.9154 14.2273 18.9154V17.0846C13.7826 17.0846 13.3699 16.7029 13.3699 16.1667H11.5392ZM14.2273 18.9154C15.7406 18.9154 16.9154 17.6555 16.9154 16.1667H15.0846C15.0846 16.7029 14.672 17.0846 14.2273 17.0846V18.9154ZM16.9154 16.1667C16.9154 14.6779 15.7406 13.4179 14.2273 13.4179V15.2487C14.672 15.2487 15.0846 15.6305 15.0846 16.1667H16.9154ZM14.2273 13.4179C13.3432 13.4179 12.5673 13.8541 12.0827 14.509L13.5544 15.598C13.7177 15.3773 13.9628 15.2487 14.2273 15.2487V13.4179ZM13.3554 14.312L10.9121 12.5432L9.83852 14.0262L12.2818 15.795L13.3554 14.312ZM11.2073 13.6663C11.3706 13.3105 11.4608 12.9145 11.4608 12.5H9.63007C9.63007 12.6471 9.59827 12.7832 9.54326 12.9031L11.2073 13.6663ZM11.4608 12.5C11.4608 12.0855 11.3706 11.6895 11.2073 11.3337L9.54326 12.0969C9.59827 12.2168 9.63007 12.3529 9.63007 12.5H11.4608ZM10.9121 12.4568L13.3554 10.688L12.2818 9.205L9.83852 10.9738L10.9121 12.4568ZM12.0827 10.4909C12.5673 11.1459 13.3433 11.5821 14.2273 11.5821V9.75128C13.9628 9.75128 13.7177 9.6227 13.5544 9.402L12.0827 10.4909ZM14.2273 11.5821C15.7406 11.5821 16.9154 10.3222 16.9154 8.83333H15.0846C15.0846 9.36955 14.672 9.75128 14.2273 9.75128V11.5821ZM16.9154 8.83333C16.9154 7.3445 15.7406 6.08462 14.2273 6.08462V7.91538C14.672 7.91538 15.0846 8.29712 15.0846 8.83333H16.9154ZM14.1881 8.83333C14.1881 8.80333 14.1991 8.78328 14.2104 8.7716C14.216 8.76575 14.2206 8.76325 14.2226 8.76239C14.2238 8.76185 14.2247 8.76154 14.2273 8.76154V6.93077C13.1658 6.93077 12.3573 7.81182 12.3573 8.83333H14.1881ZM14.2273 8.76154C14.2299 8.76154 14.2307 8.76185 14.232 8.76239C14.2339 8.76325 14.2385 8.76575 14.2442 8.7716C14.2555 8.78328 14.2664 8.80333 14.2664 8.83333H16.0972C16.0972 7.81182 15.2888 6.93077 14.2273 6.93077V8.76154ZM14.2664 8.83333C14.2664 8.86334 14.2555 8.88339 14.2442 8.89507C14.2385 8.90091 14.2339 8.90342 14.232 8.90428C14.2307 8.90482 14.2299 8.90513 14.2273 8.90513V10.7359C15.2888 10.7359 16.0972 9.85484 16.0972 8.83333H14.2664ZM14.2273 8.90513C14.2247 8.90513 14.2238 8.90482 14.2226 8.90428C14.2206 8.90342 14.216 8.90091 14.2104 8.89507C14.1991 8.88339 14.1881 8.86334 14.1881 8.83333H12.3573C12.3573 9.85484 13.1658 10.7359 14.2273 10.7359V8.90513ZM8.77273 10.5974C7.71123 10.5974 6.9028 11.4785 6.9028 12.5H8.73357C8.73357 12.47 8.74453 12.4499 8.75582 12.4383C8.76147 12.4324 8.76606 12.4299 8.76802 12.4291C8.76927 12.4285 8.77014 12.4282 8.77273 12.4282V10.5974ZM6.9028 12.5C6.9028 13.5215 7.71123 14.4026 8.77273 14.4026V12.5718C8.77014 12.5718 8.76927 12.5715 8.76802 12.5709C8.76606 12.5701 8.76147 12.5676 8.75582 12.5617C8.74453 12.5501 8.73357 12.53 8.73357 12.5H6.9028ZM8.77273 14.4026C9.83422 14.4026 10.6427 13.5215 10.6427 12.5H8.81189C8.81189 12.53 8.80093 12.5501 8.78963 12.5617C8.78398 12.5676 8.77939 12.5701 8.77743 12.5709C8.77618 12.5715 8.77531 12.5718 8.77273 12.5718V14.4026ZM10.6427 12.5C10.6427 11.4785 9.83422 10.5974 8.77273 10.5974V12.4282C8.77531 12.4282 8.77618 12.4285 8.77743 12.4291C8.77939 12.4299 8.78398 12.4324 8.78963 12.4383C8.80093 12.4499 8.81189 12.47 8.81189 12.5H10.6427ZM14.2273 14.2641C13.1658 14.2641 12.3573 15.1452 12.3573 16.1667H14.1881C14.1881 16.1367 14.1991 16.1166 14.2104 16.1049C14.216 16.0991 14.2206 16.0966 14.2226 16.0957C14.2238 16.0952 14.2247 16.0949 14.2273 16.0949V14.2641ZM12.3573 16.1667C12.3573 17.1882 13.1658 18.0692 14.2273 18.0692V16.2385C14.2247 16.2385 14.2238 16.2382 14.2226 16.2376C14.2206 16.2368 14.216 16.2342 14.2104 16.2284C14.1991 16.2167 14.1881 16.1967 14.1881 16.1667H12.3573ZM14.2273 18.0692C15.2888 18.0692 16.0972 17.1882 16.0972 16.1667H14.2664C14.2664 16.1967 14.2555 16.2167 14.2442 16.2284C14.2385 16.2342 14.2339 16.2368 14.232 16.2376C14.2307 16.2382 14.2299 16.2385 14.2273 16.2385V18.0692ZM16.0972 16.1667C16.0972 15.1452 15.2888 14.2641 14.2273 14.2641V16.0949C14.2299 16.0949 14.2307 16.0952 14.232 16.0957C14.2339 16.0966 14.2385 16.0991 14.2442 16.1049C14.2555 16.1166 14.2664 16.1367 14.2664 16.1667H16.0972Z" fill="#8E8E93" mask="url(#path-2-inside-1_436_49305)"/>
</svg>
