<svg width="24" height="24" viewBox="0 0 24 24" fill="none" xmlns="http://www.w3.org/2000/svg">
<circle cx="12.0556" cy="12" r="11.52" fill="#F5F4F9"/>
<g clip-path="url(#clip0_234_17113)">
<path d="M11.9997 18.3161C11.8632 18.3161 11.7315 18.262 11.6355 18.1646L6.99444 13.5084C5.66852 12.179 5.66852 10.0142 6.99444 8.68418C7.63717 8.0394 8.49185 7.68408 9.4014 7.68408C10.311 7.68408 11.1656 8.0394 11.8084 8.68418L12.0004 8.87693L12.1925 8.68418C12.8359 8.0394 13.6906 7.68408 14.5995 7.68408C15.5083 7.68408 16.3637 8.0394 17.0057 8.68418L17.0064 8.68555C18.3317 10.0149 18.331 12.179 17.0057 13.5084L12.3647 18.1646C12.2673 18.262 12.1362 18.3161 11.9997 18.3161ZM9.40003 8.71299C8.76622 8.71299 8.17014 8.96062 7.72222 9.41059C6.79552 10.34 6.79552 11.8532 7.72222 12.7827L11.9991 17.0732L16.2759 12.7827C17.2026 11.8539 17.2033 10.3407 16.2766 9.41196L16.2759 9.41059C15.828 8.9613 15.2319 8.71299 14.5981 8.71299C13.965 8.71299 13.3689 8.95993 12.921 9.40991L12.364 9.96895C12.1712 10.1631 11.8283 10.1631 11.6355 9.96895L11.0785 9.41059C10.6299 8.96062 10.0338 8.71299 9.40003 8.71299Z" fill="#00514A"/>
</g>
<path d="M16.649 12.9122L12.223 17.6456L7.797 12.9122C5.38005 10.1301 8.98904 6.26433 11.591 8.85531L12.2235 9.53172L12.856 8.85531C15.4551 6.25982 19.0722 10.1417 16.649 12.9122Z" fill="#00514A"/>
<defs>
<clipPath id="clip0_234_17113">
<rect x="6" y="7" width="12" height="12" fill="white"/>
</clipPath>
</defs>
</svg>
