<svg width="42" height="32" viewBox="0 0 42 32" fill="none" xmlns="http://www.w3.org/2000/svg">
<path d="M12.5451 2.52828C12.01 2.79583 11.6993 3.05475 10.6032 4.14223C9.8868 4.85858 8.90289 5.94606 8.41957 6.55021C7.74637 7.39603 7.5306 7.62043 7.49608 7.4996C7.15948 6.45528 6.6589 6.05826 5.6491 6.05826C4.9759 6.05826 4.5012 6.27403 4.10419 6.75735C3.68991 7.25794 3.52593 7.82757 3.27564 9.51057C3.15481 10.365 2.83547 12.3932 2.56791 14.0331L2.07596 17.0107L2.54202 19.7467L2.99945 22.4826L1.98965 24.6489C0.936699 26.8843 0.867653 27.126 1.23015 27.3158C1.50633 27.4626 9.87817 30 10.0853 30C10.1975 30 10.3356 29.9396 10.4046 29.8619C10.4651 29.7929 10.6204 28.9643 10.7585 28.0408C10.888 27.1087 11.0088 26.3406 11.0261 26.3319C12.8385 25.2099 14.556 23.8635 15.3242 22.9659C16.2649 21.8698 16.6015 20.8945 16.6706 19.0821L16.7137 17.8738L17.3006 17.0107C18.414 15.3622 19.2339 13.9209 19.6396 12.8938C20.1315 11.651 19.9934 10.5894 19.2339 9.80401L18.9491 9.50194L19.1131 8.94957C19.4411 7.91388 19.303 7.14574 18.6815 6.51569C18.4658 6.29129 18.2414 6.10142 18.181 6.08415C18.086 6.04963 18.0947 5.93743 18.2155 5.50589C18.4917 4.51335 18.1205 3.66754 17.1971 3.21011C16.731 2.97708 16.1182 2.91666 15.7212 3.06339C15.5486 3.13243 15.4882 3.09791 15.2724 2.83899C14.9358 2.41608 14.4438 2.20894 13.7534 2.20894C13.2614 2.20894 13.0888 2.25209 12.5451 2.52828ZM15.3242 3.67617C15.7126 3.89194 15.5658 4.10771 12.7608 7.4996C11.2591 9.31206 9.95585 10.8311 9.86954 10.8742C9.67103 10.9692 9.36032 10.7275 9.36032 10.4858C9.36032 10.3478 13.926 4.72912 14.6941 3.9092C15.0307 3.56397 15.0739 3.54671 15.3242 3.67617ZM17.4819 5.92017C17.8789 6.13594 17.7149 6.38623 15.6953 8.76832C12.9766 11.9617 12.8213 12.1343 12.6486 12.1343C12.407 12.1343 12.1653 11.8236 12.2603 11.6165C12.3293 11.4698 16.0492 7.0508 16.8173 6.20498C17.1712 5.80797 17.2229 5.78208 17.4819 5.92017ZM7.35799 8.87189C7.43566 8.94957 7.46156 9.65729 7.46156 11.5302V14.0849L7.94488 14.5509C8.96331 15.5435 9.46389 16.3893 9.64514 17.4336C9.73145 17.9428 9.72282 18.0119 9.57609 18.1759C9.23086 18.5556 8.92879 18.3312 8.83385 17.6062C8.72165 16.7604 8.316 16.0613 7.45293 15.2241L6.68479 14.4646V11.72C6.68479 8.83737 6.69342 8.76832 7.07317 8.76832C7.17674 8.76832 7.29757 8.81148 7.35799 8.87189ZM18.4744 9.58824C18.6557 9.86443 18.7851 9.67455 16.4375 12.5486C14.5992 14.8185 14.487 14.9221 14.159 14.5596C14.0382 14.4215 14.0296 14.3611 14.1072 14.2057C14.2022 14.0331 16.6188 11.0296 17.62 9.82127C18.0429 9.32069 18.2586 9.26027 18.4744 9.58824Z" fill="url(#paint0_linear_1265_88929)"/>
<path d="M26.6564 2.37293C26.4579 2.45923 26.1904 2.675 26.0609 2.83899C25.8451 3.09791 25.7847 3.13243 25.6121 3.06339C25.1978 2.90803 24.5937 2.97708 24.119 3.21874C23.558 3.51219 23.2127 3.92646 23.066 4.47883C22.9711 4.83269 22.9797 4.97079 23.1092 5.47137C23.23 5.9288 23.2386 6.05826 23.1523 6.08415C23.0919 6.10142 22.8675 6.29129 22.6517 6.51569C22.0303 7.14574 21.8922 7.91388 22.2202 8.94957L22.3842 9.50194L22.0907 9.80401C21.3916 10.5204 21.219 11.651 21.6333 12.7385C22.0648 13.8605 22.8589 15.2759 24.0327 17.0107L24.6196 17.8738L24.6627 19.0821C24.7318 20.8945 25.0684 21.8698 26.0091 22.9659C26.7772 23.8722 28.4861 25.2013 30.195 26.2456C30.2986 26.3147 30.3935 26.7289 30.5748 28.0322C30.7129 28.9643 30.8682 29.7929 30.9286 29.8619C30.9977 29.9396 31.1358 30 31.2566 30C31.4637 30 39.827 27.4626 40.1031 27.3158C40.4656 27.1173 40.3966 26.8757 39.3436 24.6489L38.3338 22.4826L38.7913 19.7467L39.2573 17.0107L38.7654 14.0331C38.4978 12.3932 38.1785 10.365 38.0577 9.51057C37.8074 7.82757 37.6434 7.25794 37.2291 6.75735C36.8321 6.27403 36.3574 6.05826 35.6842 6.05826C34.6744 6.05826 34.1738 6.45528 33.8372 7.4996C33.8027 7.62043 33.5869 7.39603 32.9137 6.55021C32.4304 5.94606 31.4465 4.85859 30.7301 4.14223C29.634 3.05476 29.3233 2.79583 28.7882 2.52828C28.2445 2.25209 28.0719 2.20894 27.5799 2.20894C27.2088 2.20894 26.8894 2.26936 26.6564 2.37293ZM26.6392 3.9092C27.4073 4.72912 31.973 10.3478 31.973 10.4858C31.973 10.7275 31.6623 10.9692 31.4637 10.8742C31.3774 10.8311 30.0742 9.31206 28.5724 7.4996C25.7847 4.1336 25.6294 3.90057 26.0005 3.6848C26.2335 3.54671 26.3112 3.5726 26.6392 3.9092ZM24.516 6.20498C25.2841 7.0508 29.004 11.4698 29.073 11.6165C29.1334 11.7459 29.1076 11.8322 28.9954 11.9617C28.771 12.212 28.5983 12.1775 28.2531 11.8064C27.9942 11.5388 24.6368 7.59454 23.8428 6.62789C23.6011 6.33445 23.6011 6.13594 23.8428 5.93743C24.0586 5.77345 24.1621 5.80797 24.516 6.20498ZM34.5449 8.87189C34.6226 8.94957 34.6485 9.70044 34.6485 11.72V14.4646L33.8804 15.2241C33.0173 16.0613 32.6116 16.7604 32.4994 17.6062C32.4045 18.3312 32.1024 18.5556 31.7572 18.1759C31.6105 18.0119 31.6018 17.9428 31.6881 17.425C31.8521 16.5101 32.3182 15.6729 33.1467 14.8099L33.8717 14.059V11.5129C33.8717 8.846 33.8804 8.76832 34.2601 8.76832C34.3637 8.76832 34.4845 8.81148 34.5449 8.87189ZM23.299 9.42426C23.4285 9.47604 26.9758 13.7742 27.2002 14.1539C27.3382 14.3956 27.3382 14.4301 27.1743 14.5855C26.8808 14.8875 26.6909 14.7667 25.802 13.6706C23.6184 10.9951 22.738 9.88169 22.738 9.80401C22.738 9.71771 23.0488 9.37247 23.1178 9.37247C23.1351 9.37247 23.2214 9.39837 23.299 9.42426Z" fill="url(#paint1_linear_1265_88929)"/>
<defs>
<linearGradient id="paint0_linear_1265_88929" x1="10.48" y1="30" x2="10.48" y2="2.20894" gradientUnits="userSpaceOnUse">
<stop stop-color="#002E2A"/>
<stop offset="1" stop-color="#007166"/>
</linearGradient>
<linearGradient id="paint1_linear_1265_88929" x1="30.8564" y1="30" x2="30.8564" y2="2.20894" gradientUnits="userSpaceOnUse">
<stop stop-color="#002E2A"/>
<stop offset="1" stop-color="#007166"/>
</linearGradient>
</defs>
</svg>
