<svg width="42" height="32" viewBox="0 0 42 32" fill="none" xmlns="http://www.w3.org/2000/svg">
<path d="M12.6285 5.2073C11.3229 5.52115 9.83728 8.39066 9.83728 10.6325C9.8823 11.574 10.4675 13.8158 11.1878 15.6541L12.4934 18.9271L10.8277 18.6581C9.92732 18.5236 7.72139 18.2546 6.01067 18.1201L2.81432 17.8062L2.27409 20.5861C1.59881 24.2178 2.13903 25.5629 4.25493 25.5629C5.06527 25.5629 5.78557 25.3387 5.87561 25.0248C6.01067 24.6213 7.00108 24.711 9.6572 25.4284C15.1495 26.9528 17.7156 27.177 19.0662 26.2803C19.7415 25.8319 20.1916 25.1145 20.1916 24.442V23.3659L21.3171 24.4868C23.298 26.4596 25.4138 27.0425 30.2759 26.9976C32.797 26.9976 34.9129 26.7735 35.183 26.5044C35.4531 26.2354 36.2184 26.0112 36.8487 26.0112C38.4243 26.0112 40 23.8591 40 21.7966C40 20.1377 38.3793 18.3891 36.8487 18.3891C35.8583 18.3891 34.5977 16.9992 34.5977 15.8783C34.5977 10.9015 19.6964 3.68287 12.6285 5.2073ZM22.0824 17.5372L23.8832 18.4788L22.3075 20.0929C21.4522 20.9896 20.6869 22.0208 20.5518 22.3795C20.4618 22.7382 20.1916 21.5725 19.9215 19.779C19.6964 18.0304 19.6514 16.5957 19.8765 16.5957C20.0566 16.5957 21.047 16.9992 22.0824 17.5372ZM29.1954 23.0969C29.1954 23.4107 29.5556 23.9488 30.0058 24.173C30.6811 24.5765 30.6811 24.6213 29.8257 24.6662C28.6102 24.6662 27.1696 23.5901 27.5748 22.9624C28.0249 22.2002 29.1954 22.2898 29.1954 23.0969Z" fill="url(#paint0_linear_1265_88923)"/>
<defs>
<linearGradient id="paint0_linear_1265_88923" x1="19.1592" y1="5.0008" x2="19.1592" y2="27" gradientUnits="userSpaceOnUse">
<stop stop-color="#002E2A"/>
<stop offset="1" stop-color="#007166"/>
</linearGradient>
</defs>
</svg>
