<svg width="42" height="32" viewBox="0 0 42 32" fill="none" xmlns="http://www.w3.org/2000/svg">
<path d="M30.1915 25.5213H12.0988C11.8271 25.5213 11.5664 25.4133 11.3742 25.2212C11.1821 25.029 11.0741 24.7684 11.0741 24.4966C11.0741 24.2248 11.1821 23.9642 11.3742 23.772C11.5664 23.5799 11.8271 23.4719 12.0988 23.4719H27.1722C27.3796 23.4719 27.5786 23.3895 27.7253 23.2428C27.872 23.0961 27.9544 22.8971 27.9544 22.6897V2.78222C27.9544 2.57476 27.872 2.3758 27.7253 2.22911C27.5786 2.08241 27.3796 2 27.1722 2H11.1289C10.299 2 9.50321 2.32965 8.91644 2.91642C8.32966 3.5032 8 4.29904 8 5.12887V25.4666C8 26.2964 8.32966 27.0922 8.91644 27.679C9.50321 28.2658 10.299 28.5954 11.1289 28.5954H30.1915C30.4177 28.6383 30.6504 28.6307 30.8733 28.5733C31.0961 28.5159 31.3036 28.41 31.4808 28.2632C31.6581 28.1164 31.8007 27.9323 31.8987 27.7241C31.9966 27.5158 32.0474 27.2885 32.0474 27.0584C32.0474 26.8282 31.9966 26.6009 31.8987 26.3927C31.8007 26.1844 31.6581 26.0003 31.4808 25.8535C31.3036 25.7067 31.0961 25.6008 30.8733 25.5434C30.6504 25.486 30.4177 25.4784 30.1915 25.5213ZM14.2186 10.096V8.48459C14.2186 5.64514 17.8872 5.6686 18.9119 4.31537C18.94 4.27503 18.9775 4.24207 19.0211 4.21932C19.0647 4.19657 19.1131 4.18469 19.1623 4.18469C19.2114 4.18469 19.2599 4.19657 19.3034 4.21932C19.347 4.24207 19.3845 4.27503 19.4126 4.31537C20.4138 5.6686 24.1059 5.64514 24.1059 8.48459V10.096C24.525 10.2955 24.8789 10.6097 25.1267 11.0022C25.3746 11.3947 25.5061 11.8494 25.5061 12.3135C25.5061 12.7777 25.3746 13.2324 25.1267 13.6249C24.8789 14.0174 24.525 14.3316 24.1059 14.5311V16.1503C24.1059 18.982 20.4295 18.9663 19.4126 20.3117C19.3857 20.3537 19.3487 20.3883 19.3049 20.4122C19.2612 20.4361 19.2121 20.4487 19.1623 20.4487C19.1124 20.4487 19.0633 20.4361 19.0196 20.4122C18.9759 20.3883 18.9388 20.3537 18.9119 20.3117C17.9029 18.9663 14.2186 18.982 14.2186 16.1503V14.5311C13.797 14.3338 13.4404 14.0205 13.1905 13.6277C12.9406 13.2349 12.8079 12.7791 12.8079 12.3135C12.8079 11.848 12.9406 11.3922 13.1905 10.9994C13.4404 10.6066 13.797 10.2932 14.2186 10.096Z" fill="url(#paint0_linear_1265_88891)"/>
<path d="M20.5702 11.8326C20.7636 11.8326 20.9527 11.7753 21.1135 11.6678C21.2743 11.5604 21.3996 11.4077 21.4736 11.229C21.5476 11.0504 21.5669 10.8538 21.5292 10.6641C21.4915 10.4744 21.3984 10.3002 21.2616 10.1635C21.1249 10.0267 20.9506 9.93359 20.761 9.89586C20.5713 9.85813 20.3747 9.8775 20.1961 9.95151C20.0174 10.0255 19.8647 10.1508 19.7572 10.3116C19.6498 10.4724 19.5924 10.6615 19.5924 10.8548C19.5924 11.1142 19.6955 11.3629 19.8788 11.5462C20.0622 11.7296 20.3109 11.8326 20.5702 11.8326ZM30.8642 3.07178C30.6049 3.07178 30.3562 3.17479 30.1728 3.35816C29.9895 3.54152 29.8864 3.79023 29.8864 4.04955V22.4473C29.8864 22.7066 29.9895 22.9553 30.1728 23.1387C30.3562 23.3221 30.6049 23.4251 30.8642 23.4251C31.1235 23.4251 31.3722 23.3221 31.5556 23.1387C31.739 22.9553 31.842 22.7066 31.842 22.4473V4.04955C31.842 3.79023 31.739 3.54152 31.5556 3.35816C31.3722 3.17479 31.1235 3.07178 30.8642 3.07178ZM22.6588 12.169C22.4882 12.5294 22.2353 12.8446 21.9205 13.0892C21.6056 13.3338 21.2377 13.5009 20.8463 13.5771C20.455 13.6532 20.0512 13.6362 19.6676 13.5275C19.284 13.4188 18.9313 13.2214 18.6381 12.9512C18.3855 12.7186 18.1825 12.4373 18.0413 12.1243C17.9 11.8113 17.8234 11.473 17.8161 11.1296C17.8088 10.7863 17.871 10.445 17.9988 10.1263C18.1266 9.80757 18.3174 9.51793 18.5599 9.27477C18.7643 9.07103 19.0025 8.90429 19.2639 8.78197C19.3063 8.76409 19.341 8.73184 19.362 8.6909C19.3829 8.64996 19.3888 8.60295 19.3785 8.55812C19.3682 8.51329 19.3425 8.47352 19.3058 8.44579C19.2691 8.41806 19.2238 8.40415 19.1779 8.40651C18.6398 8.39791 18.1057 8.50045 17.609 8.70773C17.1124 8.915 16.6638 9.22255 16.2915 9.61112C15.5654 10.3528 15.1637 11.3525 15.1747 12.3904C15.1857 13.4282 15.6085 14.4192 16.3502 15.1453C17.0918 15.8714 18.0915 16.2732 19.1294 16.2622C20.1673 16.2511 21.1583 15.8283 21.8844 15.0867C22.2563 14.716 22.5498 14.2743 22.7473 13.7878C22.9449 13.3013 23.0425 12.78 23.0342 12.255C23.0366 12.2091 23.0227 12.1638 22.9949 12.1271C22.9672 12.0904 22.9274 12.0647 22.8826 12.0544C22.8378 12.0441 22.7908 12.05 22.7498 12.0709C22.7089 12.0919 22.6766 12.1266 22.6588 12.169Z" fill="url(#paint1_linear_1265_88891)"/>
<defs>
<linearGradient id="paint0_linear_1265_88891" x1="20.0237" y1="2" x2="20.0237" y2="28.6228" gradientUnits="userSpaceOnUse">
<stop stop-color="#002E2A"/>
<stop offset="1" stop-color="#007166"/>
</linearGradient>
<linearGradient id="paint1_linear_1265_88891" x1="23.5082" y1="3.07178" x2="23.5082" y2="23.4251" gradientUnits="userSpaceOnUse">
<stop stop-color="#002E2A"/>
<stop offset="1" stop-color="#007166"/>
</linearGradient>
</defs>
</svg>
