<svg width="42" height="32" viewBox="0 0 42 32" fill="none" xmlns="http://www.w3.org/2000/svg">
<path d="M38.9101 19.4626L37.7402 7.09242C37.725 6.93336 37.6788 6.77889 37.6043 6.63783C37.5298 6.49677 37.4284 6.37187 37.306 6.27028C37.1836 6.16868 37.0426 6.09237 36.8909 6.04571C36.7393 5.99905 36.58 5.98295 36.4221 5.99832C36.2643 6.0137 36.111 6.06024 35.971 6.13532C35.831 6.21039 35.7071 6.31252 35.6062 6.43586C35.5054 6.5592 35.4297 6.70134 35.3834 6.85417C35.3371 7.007 35.3211 7.16753 35.3364 7.32658L36.4982 19.6887C36.5282 19.9848 36.4481 20.2817 36.2734 20.5218C36.0988 20.7619 35.842 20.9283 35.5527 20.9887L21.6743 24.0004C21.5075 24.0327 21.3362 24.0327 21.1694 24.0004L7.25892 20.9887C6.97111 20.9265 6.71622 20.7595 6.54319 20.5195C6.37015 20.2796 6.29117 19.9837 6.3214 19.6887L7.49129 7.32658C7.52029 7.00552 7.42192 6.68594 7.21769 6.43778C7.01347 6.18961 6.72001 6.03306 6.40153 6.00236C6.24461 5.9868 6.08619 6.00271 5.9354 6.04918C5.78462 6.09565 5.64448 6.17175 5.52304 6.2731C5.40161 6.37445 5.30129 6.49903 5.2279 6.63965C5.1545 6.78028 5.10948 6.93416 5.09542 7.09242L3.92552 19.4626C3.84111 20.348 4.08267 21.2338 4.60422 21.9514C5.12578 22.669 5.89093 23.1684 6.7541 23.3545L16.0171 25.357C14.3404 26.1529 12.8742 27.3371 11.7382 28.8129C11.6916 28.8722 11.6625 28.9436 11.6543 29.0188C11.646 29.0941 11.659 29.1701 11.6915 29.2383C11.7241 29.3065 11.7751 29.3641 11.8386 29.4045C11.9021 29.4449 11.9756 29.4665 12.0507 29.4669H15.4081C15.4962 29.4672 15.5815 29.4357 15.6485 29.3781C17.1638 28.1306 19.0604 27.4492 21.0172 27.4492C22.9739 27.4492 24.8705 28.1306 26.3859 29.3781C26.4529 29.4357 26.5382 29.4672 26.6263 29.4669H29.9837C30.0588 29.4665 30.1323 29.4449 30.1958 29.4045C30.2593 29.3641 30.3103 29.3065 30.3428 29.2383C30.3754 29.1701 30.3883 29.0941 30.3801 29.0188C30.3718 28.9436 30.3428 28.8722 30.2962 28.8129C29.2243 27.414 27.8554 26.2746 26.2897 25.4781L36.0896 23.3545C36.9513 23.1667 37.7145 22.6666 38.2345 21.9491C38.7544 21.2317 38.9949 20.3469 38.9101 19.4626Z" fill="url(#paint0_linear_1265_88892)"/>
<path d="M32.9565 3.91874C32.9455 3.80145 32.9091 3.68802 32.85 3.5864C32.7908 3.48478 32.7103 3.39745 32.6141 3.33051C32.5179 3.26357 32.4083 3.21865 32.2931 3.19891C32.1778 3.17918 32.0596 3.18509 31.9469 3.21625L22.7159 5.75973C22.6312 5.78271 22.5564 5.83308 22.5028 5.90309C22.4492 5.97311 22.42 6.0589 22.4195 6.1473V13.3417C22.4195 13.6094 22.3139 13.8661 22.1261 14.0554C21.9383 14.2447 21.6835 14.351 21.4179 14.351C21.1522 14.351 20.8974 14.2447 20.7096 14.0554C20.5218 13.8661 20.4162 13.6094 20.4162 13.3417V6.1473C20.4157 6.0589 20.3865 5.97311 20.3329 5.90309C20.2793 5.83308 20.2045 5.78271 20.1198 5.75973L10.8888 3.21625C10.7761 3.18509 10.6579 3.17918 10.5426 3.19891C10.4274 3.21865 10.3178 3.26357 10.2216 3.33051C10.1254 3.39745 10.0449 3.48478 9.98574 3.5864C9.92658 3.68802 9.89022 3.80145 9.87918 3.91874L8.50896 18.4529C8.49001 18.6467 8.5412 18.8408 8.65311 18.9996C8.76502 19.1584 8.9301 19.271 9.11794 19.3168L20.8569 22.1671C21.2257 22.2563 21.6101 22.2563 21.9788 22.1671L33.7178 19.3168C33.9056 19.271 34.0707 19.1584 34.1826 18.9996C34.2945 18.8408 34.3457 18.6467 34.3267 18.4529L32.9565 3.91874Z" fill="url(#paint1_linear_1265_88892)"/>
<defs>
<linearGradient id="paint0_linear_1265_88892" x1="21.4179" y1="5.99268" x2="21.4179" y2="29.4669" gradientUnits="userSpaceOnUse">
<stop stop-color="#002E2A"/>
<stop offset="1" stop-color="#007166"/>
</linearGradient>
<linearGradient id="paint1_linear_1265_88892" x1="21.4179" y1="3.1875" x2="21.4179" y2="22.234" gradientUnits="userSpaceOnUse">
<stop stop-color="#002E2A"/>
<stop offset="1" stop-color="#007166"/>
</linearGradient>
</defs>
</svg>
