<svg width="42" height="32" viewBox="0 0 42 32" fill="none" xmlns="http://www.w3.org/2000/svg">
<path fill-rule="evenodd" clip-rule="evenodd" d="M21.6821 29.8365C24.427 28.4587 34.5172 22.8223 34.5172 14.4257C34.5172 6.97027 28.2093 2 21 2C14.0323 2 7.48276 6.97027 7.48276 14.4257C7.48276 22.8223 17.573 28.4587 20.3179 29.8365C20.752 30.0545 21.248 30.0545 21.6821 29.8365ZM20.6092 19.8209L15.8806 14.9404C14.9169 13.9457 14.7662 12.4361 15.5148 11.277C16.7616 9.34673 19.6653 9.44248 20.777 11.4505L20.8946 11.663C20.94 11.745 21.06 11.745 21.1054 11.663L21.223 11.4505C22.3347 9.44248 25.2385 9.34673 26.4851 11.277C27.2338 12.4361 27.0831 13.9457 26.1195 14.9404L21.3908 19.8209C21.2342 19.9826 21.1558 20.0634 21.0607 20.0822C21.0206 20.0901 20.9794 20.0901 20.9393 20.0822C20.8442 20.0634 20.7658 19.9826 20.6092 19.8209Z" fill="url(#paint0_linear_1265_88935)"/>
<defs>
<linearGradient id="paint0_linear_1265_88935" x1="21" y1="2" x2="21" y2="30" gradientUnits="userSpaceOnUse">
<stop stop-color="#002E2A"/>
<stop offset="1" stop-color="#007166"/>
</linearGradient>
</defs>
</svg>
